inDegrees=yes
name=ik_Xsens_quaternion
DataType=double
version=3
OpenSimVersion=4.4-2022-07-23-0e9fedc
endheader
time	pelvis_tilt	pelvis_list	pelvis_rotation	pelvis_tx	pelvis_ty	pelvis_tz	hip_flexion_r	hip_adduction_r	hip_rotation_r	knee_angle_r	knee_angle_r_beta	ankle_angle_r	subtalar_angle_r	mtp_angle_r	hip_flexion_l	hip_adduction_l	hip_rotation_l	knee_angle_l	knee_angle_l_beta	ankle_angle_l	subtalar_angle_l	mtp_angle_l	lumbar_extension	lumbar_bending	lumbar_rotation	arm_flex_r	arm_add_r	arm_rot_r	elbow_flex_r	pro_sup_r	wrist_flex_r	wrist_dev_r	arm_flex_l	arm_add_l	arm_rot_l	elbow_flex_l	pro_sup_l	wrist_flex_l	wrist_dev_l
12.48333333333333	44.8192463479737	-84.79150885496878	75.60335440595954	0	0.93	0	44.42643315339753	-10.00003167712577	0	59.02956589625808	1.030260280912661	-5.000001275171209	0	0	60.21674117608466	23.57964086697925	-36.09800376746785	0.2144040558125839	0.003742056703559276	-5.000001275171209	0	0	48.33173998563048	12.85073404799801	22.04413041179377	0	-13.16748039054256	0	74.66124749780398	45.00176612723336	0	5.000000167078564	47.6254401152989	-35.31570509002821	-10.45586100469383	19.75371785391231	45.00176612723336	0	5.000000167078564
12.5	44.91012301999683	-84.97580965640446	75.34137264759192	0	0.93	0	44.42692730592392	-10.00003158376216	0	59.03018117854593	1.030271019614413	-5.000001269801008	0	0	59.2141498742945	23.58187590200238	-36.20910571771872	0.2333724667345994	0.0040731179280197	-5.000001269801008	0	0	48.43692938799671	12.87156358112018	21.82099197073693	0	-13.1682719027095	0	74.66153948618719	45.00176196216989	0	5.000000166931551	47.78093235632963	-35.12154221957056	-10.47380006044081	18.9674642283785	45.00176196216989	0	5.000000166931551
12.51666666666667	45.00193239534901	-85.15533752401237	75.08159455911915	0	0.93	0	44.42740282184636	-10.00003149357859	0	59.03076866414219	1.030281273172376	-5.000001264614188	0	0	58.2002831739452	23.57681039022063	-36.28423854771236	0.2302997059929423	0.004019488135951759	-5.000001264614188	0	0	48.5448994021896	12.88457996697097	21.60043007239114	0	-13.16903043175313	0	74.66182046232454	45.00175793985939	0	5.000000166789646	47.93586010594026	-34.92412766996582	-10.49600259715889	18.19347946739929	45.00175793985939	0	5.000000166789646
12.53333333333333	45.09914350457873	-85.33659152621422	74.8226091216557	0	0.93	0	44.42784454250213	-10.00003140786106	0	59.03129859284439	1.03029052217303	-5.000001259669278	0	0	57.16599695186846	23.57448897258371	-36.33662045515749	0.1981306088900339	0.00345803147411224	-5.000001259669278	0	0	48.654256869446	12.88251899919762	21.39346239027111	0	-13.16972265781037	0	74.66208146878276	45.00175412903405	0	5.000000166654	48.08409054137403	-34.72831154837191	-10.52771215883606	17.45220517054453	45.00175412903405	0	5.000000166654
12.55	45.19779876508233	-85.49313633273383	74.54193914864392	0	0.93	0	44.42834137345174	-10.00003131603863	0	59.03192366234549	1.030301431693878	-5.000001254422379	0	0	56.05841044784836	23.55069104685512	-36.30516000284616	0.1512724147093112	0.002640201704119781	-5.000001254422379	0	0	48.75729937767347	12.87526602530895	21.20736454289477	0	-13.17052554966875	0	74.66237504014973	45.00175001187511	0	5.000000166511644	48.22120302286753	-34.54832627984865	-10.56624144798999	16.73437273367427	45.00175001187511	0	5.000000166511644
12.56666666666667	45.29919525127441	-85.59934270869488	74.22257060837828	0	0.93	0	44.42894462811519	-10.0000312109968	0	59.03272887679906	1.030315485337278	-5.000001248485061	0	0	54.90242485857663	23.47342249406224	-36.15845940759665	0.1231820910549479	0.002149933068400296	-5.000001248485061	0	0	48.84373551721722	12.89711850156167	21.01648699010079	0	-13.17153761512253	0	74.66273149755882	45.00174525431217	0	5.000000166352472	48.35449038428909	-34.38608853677298	-10.58453059087538	15.94723708168444	45.00174525431217	0	5.000000166352472
12.58333333333333	45.4228576186949	-85.66210645057421	73.83683592176934	0	0.93	0	44.42966973290148	-10.00003109222766	0	59.03374970198043	1.03033330209778	-5.000001241852016	0	0	53.68384116772034	23.30285406567086	-35.82684880738584	0.1095612618265962	0.001912204751513681	-5.000001241852016	0	0	48.91103819371946	12.96519028140885	20.84135364216068	0	-13.17279722870961	0	74.66315995684577	45.00173981621142	0	5.000000166177051	48.48320985533729	-34.26896921495598	-10.58278642962827	15.04648658651186	45.00173981621142	0	5.000000166177051
12.6	45.59512330649419	-85.67950657993065	73.36092334403068	0	0.93	0	44.43051451187069	-10.00003096011517	0	59.03498502503758	1.030354862552453	-5.000001234542262	0	0	52.42936108983763	23.04722353914012	-35.28468797715344	0.1042974549020614	0.001820333989491271	-5.000001234542262	0	0	48.95894299004889	13.09267741147919	20.70239150136644	0	-13.17430177471589	0	74.66365913229949	45.00173371612862	0	5.000000165985762	48.6073019171891	-34.22147961922111	-10.56385802887026	14.06914976326421	45.00173371612862	0	5.000000165985762
12.61666666666667	45.78468289023319	-85.65694582728922	72.83482940035	0	0.93	0	44.4314613127947	-10.00003081506384	0	59.03639428487926	1.030379458776706	-5.000001226546357	0	0	51.15482794932023	22.69616482906569	-34.61531873786815	0.103696489961114	0.001809845172582685	-5.000001226546357	0	0	48.99601688985158	13.24067933907832	20.57167516459245	0	-13.17600738366339	0	74.6642185928022	45.00172699485623	0	5.000000165777313	48.72612566383996	-34.19490406950091	-10.5372623624475	13.04441533767362	45.00172699485623	0	5.000000165777313
12.63333333333333	45.87543638750203	-85.44350791833948	72.28549846291206	0	0.93	0	44.43302857900418	-10.00003055921301	0	59.03865207828524	1.03041886470547	-5.000001212199628	0	0	49.78990273522238	22.40349145806622	-34.15237827710179	0.1122546658141079	0.001959213519182103	-5.000001212199628	0	0	48.9480235855306	13.30252597662839	20.45202289402379	0	-13.17875863386763	0	74.66514468062996	45.00171530211524	0	5.000000165395003	48.73191859565063	-34.14032386335129	-10.51724244598259	12.09533527737422	45.00171530211524	0	5.000000165395003
12.65	45.92966095201358	-85.30850544719794	71.87758877955845	0	0.93	0	44.43419094822696	-10.00003036113585	0	59.04025799316599	1.030446893207646	-5.000001201018303	0	0	48.54664348667595	22.18826932045837	-33.95189703806051	0.1349093461562434	0.002354612282139205	-5.000001201018303	0	0	48.96698668480568	13.29751061457303	20.27308957078466	0	-13.18074530276129	0	74.66583151523449	45.00170631069715	0	5.000000165095194	48.7921439726818	-33.9833758578629	-10.53035950312199	11.06932620331013	45.00170631069715	0	5.000000165095194
12.66666666666667	45.9565975355298	-85.25716310162957	71.58175326349712	0	0.93	0	44.43512577352912	-10.00003019876841	0	59.04151979965494	1.030468915885401	-5.000001191833491	0	0	47.45625049509037	22.03382461821442	-33.96680334010558	0.1921517509267893	0.00335368071714454	-5.000001191833491	0	0	49.02132719181947	13.16554396909779	20.0911952505486	0	-13.18232087984073	0	74.66638389513288	45.00169895882702	0	5.000000164848593	48.84144960068669	-33.73703734805616	-10.60623219252963	10.16925355778218	45.00169895882702	0	5.000000164848593
12.68333333333333	45.91820142346814	-85.18804548711834	71.35327931764238	0	0.93	0	44.4362022840825	-10.000030019261	0	59.04302057836277	1.030495109415197	-5.000001181763154	0	0	46.43733167877291	21.94881929676648	-34.15868031044242	0.3741143225964131	0.00652952670817563	-5.000001181763154	0	0	49.07051986214763	12.94978111996487	19.87603188423595	0	-13.18417634917668	0	74.66701999727985	45.00169077029472	0	5.000000164580777	48.86292569497506	-33.41244939627534	-10.70234170048998	9.268364745251247	45.00169077029472	0	5.000000164580777
